<svg width="720" height="900" viewBox="0 0 720 900" fill="none" xmlns="http://www.w3.org/2000/svg">
  <defs>
    <linearGradient id="body" x1="166" y1="52" x2="554" y2="848" gradientUnits="userSpaceOnUse">
      <stop stop-color="#f2c7d0"/>
      <stop offset="0.48" stop-color="#e9f1f8"/>
      <stop offset="1" stop-color="#94b8d2"/>
    </linearGradient>
    <linearGradient id="screen" x1="194" y1="82" x2="526" y2="818" gradientUnits="userSpaceOnUse">
      <stop stop-color="#ffffff"/>
      <stop offset="0.55" stop-color="#edf4fb"/>
      <stop offset="1" stop-color="#d2e5f3"/>
    </linearGradient>
    <filter id="shadow" x="94" y="20" width="532" height="860" filterUnits="userSpaceOnUse" color-interpolation-filters="sRGB">
      <feDropShadow dx="0" dy="34" stdDeviation="34" flood-color="#396687" flood-opacity="0.22"/>
    </filter>
  </defs>
  <g filter="url(#shadow)">
    <rect x="166" y="52" width="388" height="796" rx="70" fill="url(#body)"/>
    <rect x="184" y="70" width="352" height="760" rx="56" fill="#10151c"/>
    <rect x="198" y="84" width="324" height="732" rx="45" fill="url(#screen)"/>
    <path d="M198 585C262 516 330 534 384 464C426 410 453 314 522 268V760C522 791 497 816 466 816H254C223 816 198 791 198 760V585Z" fill="#396687" opacity="0.16"/>
    <path d="M198 278C266 232 323 247 378 196C432 146 468 112 522 101V398C470 424 418 432 360 415C300 398 249 372 198 410V278Z" fill="#DB3022" opacity="0.07"/>
    <rect x="296" y="99" width="128" height="36" rx="18" fill="#05070a"/>
    <circle cx="405" cy="117" r="5" fill="#263144"/>
  </g>
</svg>
