<svg width="30" height="26" viewBox="0 0 30 26" fill="none" xmlns="http://www.w3.org/2000/svg">
<path d="M28.5497 8.50378H22.3646L18.8951 0.526321C18.7021 0.0824625 18.1872 -0.120376 17.7452 0.0735749C17.3031 0.267408 17.1012 0.784473 17.2943 1.22839L20.4585 8.50384H9.35488L12.519 1.22839C12.7121 0.784473 12.5103 0.267467 12.0682 0.0735749C11.6262 -0.120376 11.1112 0.0823456 10.9182 0.526321L7.44869 8.50378H1.26366C0.454566 8.50378 -0.145892 9.2393 0.031124 10.0135L3.28817 24.259C3.41749 24.8246 3.92956 25.2267 4.5207 25.2267H25.2926C25.8838 25.2267 26.3958 24.8246 26.5252 24.259L29.7822 10.0135C29.9592 9.23935 29.3587 8.50378 28.5497 8.50378V8.50378ZM7.61301 11.1937C7.49632 11.1937 7.37771 11.1701 7.26387 11.1202C6.8218 10.9263 6.61992 10.4093 6.813 9.96534L7.46913 8.45665H9.37532L8.41384 10.6673C8.27053 10.9971 7.94969 11.1937 7.61301 11.1937ZM10.5395 20.5489C10.5395 21.0333 10.1484 21.426 9.66605 21.426C9.18368 21.426 8.79262 21.0333 8.79262 20.5489V14.1171C8.79262 13.6327 9.18368 13.24 9.66605 13.24C10.1484 13.24 10.5395 13.6327 10.5395 14.1171V20.5489ZM15.7801 20.5489C15.7801 21.0333 15.389 21.426 14.9067 21.426C14.4243 21.426 14.0332 21.0333 14.0332 20.5489V14.1171C14.0332 13.6327 14.4243 13.24 14.9067 13.24C15.389 13.24 15.7801 13.6327 15.7801 14.1171V20.5489ZM21.0207 20.5489C21.0207 21.0333 20.6297 21.426 20.1473 21.426C19.6649 21.426 19.2738 21.0333 19.2738 20.5489V14.1171C19.2738 13.6327 19.6649 13.24 20.1473 13.24C20.6297 13.24 21.0207 13.6327 21.0207 14.1171V20.5489ZM22.5494 11.1202C22.4356 11.1701 22.317 11.1937 22.2003 11.1937C21.8636 11.1937 21.5428 10.9971 21.3994 10.6674L20.438 8.45671H22.3441L23.0003 9.9654C23.1934 10.4093 22.9915 10.9263 22.5494 11.1202Z" fill="#354D70"/>
</svg>
