<svg width="25" height="25" viewBox="0 0 25 25" fill="none" xmlns="http://www.w3.org/2000/svg">
<path d="M17.3535 0.5C19.0498 0.500082 20.6211 1.27554 21.7803 2.7168C22.9299 4.14638 23.5801 6.12347 23.5801 8.2959C23.5801 10.5065 22.8668 12.5434 21.2871 14.7285C19.86 16.7027 17.7999 18.7173 15.3643 21.0967C14.5358 21.9062 13.5937 22.8257 12.6162 23.8057V23.8066C12.4462 23.9772 12.2405 24.0596 12.04 24.0596C11.8395 24.0596 11.6343 23.9768 11.4639 23.8057H11.4629C10.4854 22.8259 9.54394 21.9058 8.71582 21.0967C6.28004 18.7171 4.22098 16.7024 2.79395 14.7285C1.21412 12.5431 0.5 10.5064 0.5 8.2959C0.50006 6.1233 1.15037 4.14635 2.2998 2.7168C3.45895 1.27558 5.03025 0.500059 6.72656 0.5C7.98442 0.5 9.14201 0.951928 10.1787 1.87109C10.705 2.33766 11.1878 2.91408 11.6172 3.59473L12.04 4.26562L12.4629 3.59473C12.8925 2.91387 13.3752 2.33767 13.9014 1.87109C14.9382 0.952003 16.0957 0.5 17.3535 0.5Z" stroke="black"/>
</svg>
